<svg xmlns="http://www.w3.org/2000/svg" version="1.1" xmlns:xlink="http://www.w3.org/1999/xlink" xmlns:svgjs="http://svgjs.dev/svgjs" width="1000" height="1000" viewBox="0 0 1000 1000"><rect width="1000" height="1000" fill="#ffffff"></rect><g transform="matrix(0.7,0,0,0.7,149.57575757575756,304.8198869216194)"><svg viewBox="0 0 396 221" data-background-color="#ffffff" preserveAspectRatio="xMidYMid meet" height="558" width="1000" xmlns="http://www.w3.org/2000/svg" xmlns:xlink="http://www.w3.org/1999/xlink"><g id="tight-bounds" transform="matrix(1,0,0,1,0.2400000000000091,-0.06783156599557572)"><svg viewBox="0 0 395.52 221.13566243708047" height="221.13566243708047" width="395.52"><g><svg viewBox="0 0 397.4975999999999 222.24134074926585" height="221.13566243708047" width="395.52"><g><rect width="397.4975999999999" height="4.268657727580992" x="0" y="124.67237204382347" fill="#ff0000" opacity="1" stroke-width="0" stroke="transparent" fill-opacity="1" class="rect-o-0" data-fill-palette-color="primary" rx="1%" id="o-0" data-palette-color="#ff0000"></rect></g><g transform="matrix(1,0,0,1,0.9887999999999693,140.11552644046463)"><svg viewBox="0 0 395.52 82.12581430880121" height="82.12581430880121" width="395.52"><g id="textblocktransform"><svg viewBox="0 0 395.52 82.12581430880121" height="82.12581430880121" width="395.52" id="textblock"><g><svg viewBox="0 0 395.52 47.334318901795136" height="47.334318901795136" width="395.52"><g transform="matrix(1,0,0,1,0,0)"><svg width="395.52" viewBox="2.1500000953674316 -33.5 284.08001708984375 34" height="47.334318901795136" data-palette-color="#ff0000"><path d="M24.7 0L9.35 0 9.35-0.8 14.4-2.8 14.4-30.25 6.5-30.25 2.95-22.7 2.15-22.7 2.15-33 31.85-33 31.85-22.7 31.05-22.7 27.55-30.25 19.6-30.25 19.6-2.8 24.7-0.8 24.7 0ZM63.5 0L37 0 37-0.8 41.05-2.8 41.05-30.2 37-32.2 37-33 62.1-33 62.1-24.4 61.3-24.4 58.05-30.25 46.3-30.25 46.3-18.4 54.6-18.4 57.15-22.6 57.95-22.6 57.95-11.55 57.15-11.55 54.6-15.65 46.3-15.65 46.3-2.75 59.4-2.75 62.7-9.35 63.5-9.35 63.5 0ZM86.95 0.5L86.95 0.5Q81.8 0.5 78.05-1.6 74.3-3.7 72.25-7.35 70.2-11 70.2-15.65L70.2-15.65Q70.2-19.25 71.6-22.45 73-25.65 75.42-28.15 77.85-30.65 81-32.08 84.15-33.5 87.7-33.5L87.7-33.5Q90.25-33.5 92-33.18 93.75-32.85 95.12-32.33 96.5-31.8 97.9-31.1L97.9-31.1 98.2-22.2 97.3-22.2 93.85-28.7Q92.15-29.9 90.77-30.45 89.4-31 87.7-31L87.7-31Q84.25-31 81.5-29.2 78.75-27.4 77.17-24.23 75.6-21.05 75.6-16.9L75.6-16.9Q75.6-12.25 77.12-8.93 78.65-5.6 81.25-3.85 83.85-2.1 87-2.1L87-2.1Q89.6-2.1 91.37-2.8 93.15-3.5 94.55-4.45L94.55-4.45 97.9-10.05 98.75-10.05 98.15-2Q95.95-0.9 93.45-0.2 90.95 0.5 86.95 0.5ZM119.29 0L106.04 0 106.04-0.8 110.09-2.8 110.09-30.2 106.04-32.2 106.04-33 119.29-33 119.29-32.2 115.34-30.2 115.34-18.4 131.59-18.4 131.59-30.2 127.59-32.2 127.59-33 140.84-33 140.84-32.2 136.79-30.2 136.79-2.8 140.84-0.8 140.84 0 127.59 0 127.59-0.8 131.59-2.8 131.59-15.65 115.34-15.65 115.34-2.8 119.29-0.8 119.29 0ZM159.34 0L146.64 0 146.64-0.8 150.69-2.8 150.69-30.1 146.69-32.2 146.69-33 154.54-33 173.69-9.45 173.69-30.25 168.54-32.2 168.54-33 181.19-33 181.19-32.2 177.19-30.25 177.19 0.25 175.04 0.25 154.19-25.35 154.19-2.75 159.34-0.8 159.34 0ZM213.49 0L186.99 0 186.99-0.8 191.04-2.8 191.04-30.2 186.99-32.2 186.99-33 212.09-33 212.09-24.4 211.29-24.4 208.04-30.25 196.29-30.25 196.29-18.4 204.59-18.4 207.14-22.6 207.94-22.6 207.94-11.55 207.14-11.55 204.59-15.65 196.29-15.65 196.29-2.75 209.39-2.75 212.69-9.35 213.49-9.35 213.49 0ZM229.99 0L218.59 0 218.59-0.8 222.24-2.65 232.89-16.25 222.49-30.4 219.29-32.2 219.29-33 232.74-33 232.74-32.2 228.74-30.3 228.74-30.05 236.49-19.75 244.59-30.1 244.59-30.3 240.74-32.2 240.74-33 251.54-33 251.54-32.2 248.34-30.4 238.19-17.5 249.24-2.75 252.79-0.8 252.79 0 239.09 0 239.09-0.8 242.74-2.6 242.74-2.8 234.54-14 225.99-2.85 225.99-2.65 229.99-0.8 229.99 0ZM279.08 0L263.73 0 263.73-0.8 268.78-2.8 268.78-30.25 260.88-30.25 257.33-22.7 256.53-22.7 256.53-33 286.23-33 286.23-22.7 285.43-22.7 281.93-30.25 273.98-30.25 273.98-2.8 279.08-0.8 279.08 0Z" opacity="1" transform="matrix(1,0,0,1,0,0)" fill="#ff0000" class="wordmark-text-0" data-fill-palette-color="primary" id="text-0"></path></svg></g></svg></g><g transform="matrix(1,0,0,1,75.54432,58.508815570855326)"><svg viewBox="0 0 244.43135999999998 23.61699873794588" height="23.61699873794588" width="244.43135999999998"><g transform="matrix(1,0,0,1,0,0)"><svg width="244.43135999999998" viewBox="0.75 -38.5 534 51.599998474121094" height="23.61699873794588" data-palette-color="#292428"><path d="M23.2-34.75L29.5-34.75 18-12.6 18 0 12.3 0 12.3-12.6 0.75-34.75 7.1-34.75 15.15-17.7 23.2-34.75ZM45.95 0.45Q42.05 0.45 38.9-1.33 35.75-3.1 33.95-6.33 32.15-9.55 32.15-13.8L32.15-13.8Q32.15-18 34-21.25 35.85-24.5 39.05-26.25 42.25-28 46.2-28L46.2-28Q50.15-28 53.35-26.25 56.55-24.5 58.4-21.25 60.25-18 60.25-13.8L60.25-13.8Q60.25-9.6 58.35-6.35 56.45-3.1 53.17-1.33 49.9 0.45 45.95 0.45L45.95 0.45ZM45.95-4.5Q48.15-4.5 50.07-5.55 52-6.6 53.2-8.7 54.4-10.8 54.4-13.8L54.4-13.8Q54.4-16.8 53.25-18.88 52.1-20.95 50.2-22 48.3-23.05 46.1-23.05L46.1-23.05Q43.9-23.05 42.02-22 40.15-20.95 39.05-18.88 37.95-16.8 37.95-13.8L37.95-13.8Q37.95-9.35 40.22-6.93 42.5-4.5 45.95-4.5L45.95-4.5ZM85.15-27.55L90.84-27.55 90.84 0 85.15 0 85.15-3.25Q83.8-1.55 81.62-0.58 79.45 0.4 77 0.4L77 0.4Q73.75 0.4 71.17-0.95 68.59-2.3 67.12-4.95 65.65-7.6 65.65-11.35L65.65-11.35 65.65-27.55 71.3-27.55 71.3-12.2Q71.3-8.5 73.15-6.53 75-4.55 78.2-4.55L78.2-4.55Q81.4-4.55 83.27-6.53 85.15-8.5 85.15-12.2L85.15-12.2 85.15-27.55ZM104.04-23.55Q105.29-25.65 107.37-26.83 109.44-28 112.29-28L112.29-28 112.29-22.1 110.84-22.1Q107.49-22.1 105.77-20.4 104.04-18.7 104.04-14.5L104.04-14.5 104.04 0 98.34 0 98.34-27.55 104.04-27.55 104.04-23.55ZM144.44-28Q147.69-28 150.26-26.65 152.84-25.3 154.29-22.65 155.74-20 155.74-16.25L155.74-16.25 155.74 0 150.09 0 150.09-15.4Q150.09-19.1 148.24-21.08 146.39-23.05 143.19-23.05L143.19-23.05Q139.99-23.05 138.11-21.08 136.24-19.1 136.24-15.4L136.24-15.4 136.24 0 130.54 0 130.54-27.55 136.24-27.55 136.24-24.4Q137.64-26.1 139.81-27.05 141.99-28 144.44-28L144.44-28ZM188.24-14.45Q188.24-12.9 188.04-11.65L188.04-11.65 166.99-11.65Q167.24-8.35 169.44-6.35 171.64-4.35 174.84-4.35L174.84-4.35Q179.44-4.35 181.34-8.2L181.34-8.2 187.49-8.2Q186.24-4.4 182.96-1.98 179.69 0.45 174.84 0.45L174.84 0.45Q170.89 0.45 167.76-1.33 164.64-3.1 162.86-6.33 161.09-9.55 161.09-13.8L161.09-13.8Q161.09-18.05 162.81-21.28 164.54-24.5 167.66-26.25 170.79-28 174.84-28L174.84-28Q178.74-28 181.79-26.3 184.84-24.6 186.54-21.53 188.24-18.45 188.24-14.45L188.24-14.45ZM167.04-16.25L182.29-16.25Q182.24-19.4 180.04-21.3 177.84-23.2 174.59-23.2L174.59-23.2Q171.64-23.2 169.54-21.33 167.44-19.45 167.04-16.25L167.04-16.25ZM214.53-27.55L205.63-13.95 214.53 0 208.08 0 202.13-9.35 196.53 0 190.58 0 199.48-13.55 190.58-27.55 197.03-27.55 202.98-18.2 208.58-27.55 214.53-27.55ZM232.13-22.9L225.43-22.9 225.43-7.65Q225.43-6.1 226.16-5.43 226.88-4.75 228.63-4.75L228.63-4.75 232.13-4.75 232.13 0 227.63 0Q223.78 0 221.73-1.8 219.68-3.6 219.68-7.65L219.68-7.65 219.68-22.9 216.43-22.9 216.43-27.55 219.68-27.55 219.68-34.4 225.43-34.4 225.43-27.55 232.13-27.55 232.13-22.9ZM248.48-13.8Q248.48-18.05 250.2-21.28 251.93-24.5 254.98-26.25 258.03-28 261.98-28L261.98-28Q266.98-28 270.25-25.63 273.53-23.25 274.68-18.85L274.68-18.85 268.53-18.85Q267.78-20.9 266.13-22.05 264.48-23.2 261.98-23.2L261.98-23.2Q258.48-23.2 256.4-20.73 254.33-18.25 254.33-13.8L254.33-13.8Q254.33-9.35 256.4-6.85 258.48-4.35 261.98-4.35L261.98-4.35Q266.93-4.35 268.53-8.7L268.53-8.7 274.68-8.7Q273.48-4.5 270.18-2.02 266.88 0.45 261.98 0.45L261.98 0.45Q258.03 0.45 254.98-1.33 251.93-3.1 250.2-6.33 248.48-9.55 248.48-13.8L248.48-13.8ZM292.32 0.45Q288.42 0.45 285.27-1.33 282.12-3.1 280.32-6.33 278.52-9.55 278.52-13.8L278.52-13.8Q278.52-18 280.37-21.25 282.22-24.5 285.42-26.25 288.62-28 292.57-28L292.57-28Q296.52-28 299.72-26.25 302.92-24.5 304.77-21.25 306.62-18 306.62-13.8L306.62-13.8Q306.62-9.6 304.72-6.35 302.82-3.1 299.55-1.33 296.27 0.45 292.32 0.45L292.32 0.45ZM292.32-4.5Q294.52-4.5 296.45-5.55 298.37-6.6 299.57-8.7 300.77-10.8 300.77-13.8L300.77-13.8Q300.77-16.8 299.62-18.88 298.47-20.95 296.57-22 294.67-23.05 292.47-23.05L292.47-23.05Q290.27-23.05 288.4-22 286.52-20.95 285.42-18.88 284.32-16.8 284.32-13.8L284.32-13.8Q284.32-9.35 286.6-6.93 288.87-4.5 292.32-4.5L292.32-4.5ZM345.62-28Q348.87-28 351.44-26.65 354.02-25.3 355.5-22.65 356.97-20 356.97-16.25L356.97-16.25 356.97 0 351.32 0 351.32-15.4Q351.32-19.1 349.47-21.08 347.62-23.05 344.42-23.05L344.42-23.05Q341.22-23.05 339.34-21.08 337.47-19.1 337.47-15.4L337.47-15.4 337.47 0 331.82 0 331.82-15.4Q331.82-19.1 329.97-21.08 328.12-23.05 324.92-23.05L324.92-23.05Q321.72-23.05 319.84-21.08 317.97-19.1 317.97-15.4L317.97-15.4 317.97 0 312.27 0 312.27-27.55 317.97-27.55 317.97-24.4Q319.37-26.1 321.52-27.05 323.67-28 326.12-28L326.12-28Q329.42-28 332.02-26.6 334.62-25.2 336.02-22.55L336.02-22.55Q337.27-25.05 339.92-26.53 342.57-28 345.62-28L345.62-28ZM369.92-23.5Q371.37-25.4 373.87-26.7 376.37-28 379.52-28L379.52-28Q383.12-28 386.09-26.23 389.07-24.45 390.77-21.25 392.47-18.05 392.47-13.9L392.47-13.9Q392.47-9.75 390.77-6.48 389.07-3.2 386.09-1.38 383.12 0.45 379.52 0.45L379.52 0.45Q376.37 0.45 373.92-0.83 371.47-2.1 369.92-4L369.92-4 369.92 13.1 364.22 13.1 364.22-27.55 369.92-27.55 369.92-23.5ZM386.67-13.9Q386.67-16.75 385.49-18.82 384.32-20.9 382.39-21.98 380.47-23.05 378.27-23.05L378.27-23.05Q376.12-23.05 374.19-21.95 372.27-20.85 371.09-18.75 369.92-16.65 369.92-13.8L369.92-13.8Q369.92-10.95 371.09-8.83 372.27-6.7 374.19-5.6 376.12-4.5 378.27-4.5L378.27-4.5Q380.47-4.5 382.39-5.63 384.32-6.75 385.49-8.9 386.67-11.05 386.67-13.9L386.67-13.9ZM396.21-13.9Q396.21-18.05 397.94-21.25 399.66-24.45 402.64-26.23 405.61-28 409.21-28L409.21-28Q412.46-28 414.89-26.73 417.31-25.45 418.76-23.55L418.76-23.55 418.76-27.55 424.51-27.55 424.51 0 418.76 0 418.76-4.1Q417.31-2.15 414.81-0.85 412.31 0.45 409.11 0.45L409.11 0.45Q405.56 0.45 402.61-1.38 399.66-3.2 397.94-6.48 396.21-9.75 396.21-13.9L396.21-13.9ZM418.76-13.8Q418.76-16.65 417.59-18.75 416.41-20.85 414.51-21.95 412.61-23.05 410.41-23.05L410.41-23.05Q408.21-23.05 406.31-21.98 404.41-20.9 403.24-18.82 402.06-16.75 402.06-13.9L402.06-13.9Q402.06-11.05 403.24-8.9 404.41-6.75 406.34-5.63 408.26-4.5 410.41-4.5L410.41-4.5Q412.61-4.5 414.51-5.6 416.41-6.7 417.59-8.83 418.76-10.95 418.76-13.8L418.76-13.8ZM445.91-28Q449.16-28 451.74-26.65 454.31-25.3 455.76-22.65 457.21-20 457.21-16.25L457.21-16.25 457.21 0 451.56 0 451.56-15.4Q451.56-19.1 449.71-21.08 447.86-23.05 444.66-23.05L444.66-23.05Q441.46-23.05 439.59-21.08 437.71-19.1 437.71-15.4L437.71-15.4 437.71 0 432.01 0 432.01-27.55 437.71-27.55 437.71-24.4Q439.11-26.1 441.29-27.05 443.46-28 445.91-28L445.91-28ZM467.36-31.2Q465.81-31.2 464.76-32.25 463.71-33.3 463.71-34.85L463.71-34.85Q463.71-36.4 464.76-37.45 465.81-38.5 467.36-38.5L467.36-38.5Q468.86-38.5 469.91-37.45 470.96-36.4 470.96-34.85L470.96-34.85Q470.96-33.3 469.91-32.25 468.86-31.2 467.36-31.2L467.36-31.2ZM464.46-27.55L470.16-27.55 470.16 0 464.46 0 464.46-27.55ZM489.61 0.45Q485.71 0.45 482.56-1.33 479.41-3.1 477.61-6.33 475.81-9.55 475.81-13.8L475.81-13.8Q475.81-18 477.66-21.25 479.51-24.5 482.71-26.25 485.91-28 489.86-28L489.86-28Q493.81-28 497.01-26.25 500.21-24.5 502.06-21.25 503.91-18 503.91-13.8L503.91-13.8Q503.91-9.6 502.01-6.35 500.11-3.1 496.83-1.33 493.56 0.45 489.61 0.45L489.61 0.45ZM489.61-4.5Q491.81-4.5 493.73-5.55 495.66-6.6 496.86-8.7 498.06-10.8 498.06-13.8L498.06-13.8Q498.06-16.8 496.91-18.88 495.76-20.95 493.86-22 491.96-23.05 489.76-23.05L489.76-23.05Q487.56-23.05 485.68-22 483.81-20.95 482.71-18.88 481.61-16.8 481.61-13.8L481.61-13.8Q481.61-9.35 483.88-6.93 486.16-4.5 489.61-4.5L489.61-4.5ZM523.45-28Q526.7-28 529.28-26.65 531.85-25.3 533.3-22.65 534.75-20 534.75-16.25L534.75-16.25 534.75 0 529.1 0 529.1-15.4Q529.1-19.1 527.25-21.08 525.4-23.05 522.2-23.05L522.2-23.05Q519-23.05 517.13-21.08 515.25-19.1 515.25-15.4L515.25-15.4 515.25 0 509.55 0 509.55-27.55 515.25-27.55 515.25-24.4Q516.65-26.1 518.83-27.05 521-28 523.45-28L523.45-28Z" opacity="1" transform="matrix(1,0,0,1,0,0)" fill="#292428" class="slogan-text-1" data-fill-palette-color="secondary" id="text-1"></path></svg></g></svg></g></svg></g></svg></g><g transform="matrix(1,0,0,1,140.5447613462752,0)"><svg viewBox="0 0 116.40807730744952 113.49787537476328" height="113.49787537476328" width="116.40807730744952"><g><svg xmlns="http://www.w3.org/2000/svg" xmlns:xlink="http://www.w3.org/1999/xlink" version="1.1" x="0" y="0" viewBox="10 11 80 78" style="enable-background:new 0 0 100 100;" xml:space="preserve" height="113.49787537476328" width="116.40807730744952" class="icon-icon-0" data-fill-palette-color="accent" id="icon-0"><g fill="#622777" data-fill-palette-color="accent"><path d="M81 11c-5 0-9 4-9 9s4 9 9 9 9-4 9-9S86 11 81 11zM81 27c-3.9 0-7-3.1-7-7s3.1-7 7-7 7 3.1 7 7S84.9 27 81 27z" fill="#622777" data-fill-palette-color="accent"></path><path d="M81 41c-2.6 0-4.9 1.1-6.6 2.9L57.3 25.3C58.4 23.8 59 22 59 20c0-5-4-9-9-9s-9 4-9 9 4 9 9 9c2.3 0 4.3-0.9 5.9-2.2l17.3 18.7C72.5 46.8 72 48.4 72 50c0 5 4 9 9 9s9-4 9-9S86 41 81 41zM50 27c-3.9 0-7-3.1-7-7s3.1-7 7-7 7 3.1 7 7S53.9 27 50 27zM81 57c-3.9 0-7-3.1-7-7s3.1-7 7-7 7 3.1 7 7S84.9 57 81 57z" fill="#622777" data-fill-palette-color="accent"></path><path d="M50 59c5 0 9-4 9-9s-4-9-9-9-9 4-9 9S45 59 50 59zM50 43c3.9 0 7 3.1 7 7s-3.1 7-7 7-7-3.1-7-7S46.1 43 50 43z" fill="#622777" data-fill-palette-color="accent"></path><path d="M19 89c5 0 9-4 9-9s-4-9-9-9-9 4-9 9S14 89 19 89zM19 73c3.9 0 7 3.1 7 7s-3.1 7-7 7-7-3.1-7-7S15.1 73 19 73z" fill="#622777" data-fill-palette-color="accent"></path><path d="M81 71c-4.6 0-8.4 3.5-8.9 8H58.9c-0.5-4.5-4.3-8-8.9-8-3.2 0-6 1.7-7.6 4.2l-18-18c2.2-1.6 3.6-4.3 3.6-7.2 0-4.6-3.5-8.4-8-8.9V28.9c4.5-0.5 8-4.3 8-8.9 0-5-4-9-9-9s-9 4-9 9c0 4.6 3.5 8.4 8 8.9v12.1c-4.5 0.5-8 4.3-8 8.9 0 5 4 9 9 9 1.3 0 2.5-0.3 3.6-0.7l18.9 18.9C41.2 78 41 79 41 80c0 5 4 9 9 9 4.6 0 8.4-3.5 8.9-8h13.1c0.5 4.5 4.3 8 8.9 8 5 0 9-4 9-9S86 71 81 71zM12 20c0-3.9 3.1-7 7-7s7 3.1 7 7-3.1 7-7 7S12 23.9 12 20zM12 50c0-3.9 3.1-7 7-7s7 3.1 7 7-3.1 7-7 7S12 53.9 12 50zM50 87c-3.9 0-7-3.1-7-7s3.1-7 7-7 7 3.1 7 7S53.9 87 50 87zM81 87c-3.9 0-7-3.1-7-7s3.1-7 7-7 7 3.1 7 7S84.9 87 81 87z" fill="#622777" data-fill-palette-color="accent"></path></g></svg></g></svg></g><g></g></svg></g><defs></defs></svg><rect width="395.52" height="221.13566243708047" fill="none" stroke="none" visibility="hidden"></rect></g></svg></g></svg>